<svg width="580" height="400" xmlns="http://www.w3.org/2000/svg">
 <!-- Created with Method Draw - http://github.com/duopixel/Method-Draw/ -->
 <g>
  <title>background</title>
  <rect fill="#fff" id="canvas_background" height="402" width="582" y="-1" x="-1"/>
  <g display="none" overflow="visible" y="0" x="0" height="100%" width="100%" id="canvasGrid">
   <rect fill="url(#gridpattern)" stroke-width="0" y="0" x="0" height="100%" width="100%"/>
  </g>
 </g>
 <g>
  <title>Layer 1</title>
  <path id="svg_1" d="m302.03979,22.70129c-6.24427,2.44056 -11.94229,5.69425 -17.68584,8.59429c-1.95738,0.98754 -4.18106,2.55724 -5.99505,3.03718c-4.6226,1.21847 -11.85581,-0.91296 -17.74843,-1.13549c-14.72815,-0.5521 -24.26355,0.593 -36.37086,2.52236c-5.66616,0.90093 -11.53261,1.74532 -16.50573,3.28616c-4.2482,1.31711 -9.11889,4.26046 -13.87236,6.73591c-7.51202,3.91284 -12.62852,7.59714 -18.48587,12.31468c-9.79031,7.87981 -15.95379,17.79963 -23.11757,28.69857c-3.1284,4.75723 -7.63379,11.84557 -7.85797,17.47487c-4.14123,6.63366 -10.4333,10.68363 -12.01172,20.39416c2.2066,5.67861 7.92511,0.62908 11.37101,-1.26178c2.84959,-1.56851 5.91539,-3.44253 8.44064,-4.19431c13.12469,-3.91043 31.41482,1.67917 44.19355,-1.90409c4.52929,-1.269 8.45316,-3.83105 12.95286,-4.91601c4.27323,-1.03324 7.5416,0.79628 10.58806,2.18676c1.61825,0.74095 3.32299,1.74412 4.79331,2.5416c9.5206,5.19988 19.03666,10.7125 31.81881,12.7886c10.25918,1.66353 19.17209,-1.51077 27.51144,-3.22602c2.1167,-0.43663 4.85134,-0.27785 6.45708,-2.18796c-6.65624,-1.58895 -12.18015,-4.29895 -19.13112,-7.19179c-9.13027,-3.79616 -16.22236,-6.36422 -19.67281,-13.98542c4.0866,-1.13067 8.81959,-0.29229 13.07348,0.49557c4.64536,0.85642 9.25545,1.66112 13.71304,2.43575c18.82158,3.27533 32.99666,8.77352 47.32423,15.90636c6.96008,3.46057 13.37391,8.28276 19.27337,12.33032c12.08227,8.2996 22.39607,18.60554 32.1238,29.83285c4.40296,5.0832 8.33593,11.44864 13.11103,17.51576c2.08712,2.65227 4.18561,5.61125 6.41611,8.88659c2.1315,3.11175 5.38394,6.92595 5.83459,9.64798c0.50755,3.0059 -1.00259,6.30168 -1.76278,9.58664c-1.3144,5.70628 -2.28399,11.82753 -1.84358,17.68657c0.57583,7.57789 2.17816,14.95852 5.53757,20.69968c1.45779,-1.37004 2.05297,-3.78173 2.80406,-5.99015c3.6826,-4.97494 8.58175,-9.94388 8.70351,-18.22303c10.05889,5.49458 29.59742,5.03389 41.32804,4.89075c3.5267,-0.0433 7.11941,0.35123 10.04068,-1.09819c-6.16119,-3.77452 -10.68365,-8.551 -16.03914,-13.42731c-8.10264,-7.3674 -14.80439,-13.57406 -26.74897,-17.51577c-3.87151,-1.27741 -8.30407,-1.96905 -10.42532,-4.33624c-1.63078,-1.81147 -2.12695,-5.82415 -2.95428,-9.68888c-2.22482,-10.44907 -5.11764,-21.53565 -7.69865,-30.32962c-7.74531,-26.43362 -19.56698,-49.9263 -35.29544,-68.17098c-7.97064,-9.25225 -17.48897,-16.78684 -27.75156,-25.16463c-1.75368,-2.90606 -5.03912,-6.82612 -5.71737,-11.25738c-0.69419,-4.56238 0.55762,-8.56663 3.22512,-11.63147c5.83573,-4.50103 15.00469,-4.999 18.96952,-11.73611c-5.18364,-3.94412 -11.61569,-5.10005 -17.9271,-5.74477c-13.63452,-1.39409 -26.4087,-0.31154 -36.98539,3.82744z" stroke-width="1.5" stroke="#000" fill="#fff"/>
  <path stroke="#000" id="svg_5" d="m270.371537,91.675072c-5.498687,2.111618 -10.516352,4.926761 -15.574103,7.435934c-1.723664,0.85443 -3.681826,2.212568 -5.279221,2.627814c-4.070652,1.054248 -10.440191,-0.789905 -15.62922,-0.982438c-12.969567,-0.47769 -21.366414,0.513074 -32.028075,2.182387c-4.989605,0.779498 -10.155586,1.510083 -14.534894,2.843243c-3.740951,1.139587 -8.030068,3.686225 -12.215965,5.828024c-6.61506,3.385457 -11.120637,6.573178 -16.2786,10.654876c-8.621325,6.817747 -14.048861,15.400552 -20.357269,24.830503c-2.754855,4.116042 -6.722288,10.248996 -6.919708,15.119558c-3.646751,5.739563 -9.187528,9.243662 -10.577482,17.645382c1.94313,4.913232 6.978833,0.544296 10.013283,-1.091714c2.509334,-1.357097 5.209072,-2.978536 7.432798,-3.628985c11.557565,-3.383376 27.663799,1.452843 38.916717,-1.647457c3.988477,-1.097958 7.443822,-3.314688 11.406244,-4.253417c3.762998,-0.893977 6.641116,0.688956 9.323818,1.892026c1.425029,0.641083 2.92622,1.509042 4.220972,2.199038c8.38382,4.499026 16.763631,9.268639 28.019555,11.064919c9.034202,1.439314 16.882884,-1.307142 24.226493,-2.791207c1.863962,-0.377781 4.27208,-0.240406 5.686086,-1.893067c-5.861458,-1.374789 -10.725798,-3.719528 -16.846808,-6.222456c-8.040089,-3.284508 -14.285363,-5.506442 -17.323822,-12.100434c3.598649,-0.978275 7.766508,-0.252895 11.51247,0.428776c4.090695,0.740992 8.150323,1.437232 12.075667,2.107455c16.574228,2.833876 29.05676,7.591001 41.673577,13.762461c6.129027,2.994147 11.777032,7.166388 16.972074,10.668405c10.639614,7.180958 19.721919,16.097834 28.288126,25.8119c3.877241,4.398076 7.340602,9.905559 11.54554,15.154943c1.837906,2.294784 3.685834,4.854952 5.650009,7.688828c1.87699,2.692339 4.741077,5.992457 5.137921,8.347603c0.44695,2.600756 -0.882877,5.452324 -1.552299,8.294526c-1.15746,4.937169 -2.011275,10.233385 -1.623451,15.302725c0.507078,6.556527 1.918077,12.942375 4.876365,17.909725c1.283729,-1.185378 1.807843,-3.272019 2.469248,-5.182778c3.242893,-4.304412 7.557062,-8.60362 7.66429,-15.766885c8.857827,4.754002 26.063397,4.355407 36.393354,4.231561c3.105601,-0.037466 6.269325,0.30389 8.841793,-0.950176c-5.425532,-3.265775 -9.407997,-7.398468 -14.12402,-11.617541c-7.135166,-6.374401 -13.036709,-11.744508 -23.555066,-15.154943c-3.409246,-1.105243 -7.312543,-1.703656 -9.180513,-3.75179c-1.436052,-1.567322 -1.872981,-5.039159 -2.60153,-8.382988c-1.959164,-9.040722 -4.506579,-18.633024 -6.77941,-26.241717c-6.820497,-22.87083 -17.230624,-43.197103 -31.081062,-58.982721c-7.018919,-8.005207 -15.400734,-14.524267 -24.437943,-21.772872c-1.544282,-2.514376 -4.437432,-5.906077 -5.034701,-9.740084c-0.611299,-3.947445 0.491044,-7.411997 2.840036,-10.063748c5.138923,-3.894369 13.213084,-4.325226 16.704505,-10.15429c-4.564702,-3.412516 -10.228741,-4.412646 -15.786554,-4.970472c-12.00652,-1.206193 -23.255429,-0.269546 -32.569226,3.311566z" fill-opacity="null" stroke-opacity="null" stroke-width="1.5" fill="#fff"/>
  <path id="svg_6" d="m273.712527,169.834313c-6.542505,2.154062 -12.512675,5.025791 -18.53054,7.585399c-2.050867,0.871604 -4.380748,2.257041 -6.281377,2.680634c-4.843386,1.075439 -12.422056,-0.805783 -18.59612,-1.002186c-15.431584,-0.487292 -25.422408,0.523387 -38.107977,2.226254c-5.936784,0.795166 -12.083424,1.540436 -17.294058,2.900393c-4.451098,1.162493 -9.554419,3.76032 -14.534926,5.945169c-7.8708,3.453506 -13.231671,6.705302 -19.368773,10.869044c-10.257914,6.954787 -16.715761,15.71011 -24.221697,25.329607c-3.277811,4.198776 -7.998383,10.455005 -8.233278,15.423468c-4.339015,5.85493 -10.9316,9.429463 -12.58541,18.000062c2.311995,5.01199 8.303628,0.555236 11.914108,-1.113658c2.985681,-1.384375 6.197912,-3.038406 8.843769,-3.70193c13.751542,-3.451383 32.915228,1.482046 46.304292,-1.680572c4.745612,-1.120027 8.856885,-3.381315 13.571495,-4.338912c4.47733,-0.911947 7.901801,0.702804 11.093761,1.930057c1.695543,0.653969 3.481705,1.539374 5.02224,2.24324c9.975323,4.589458 19.945877,9.454943 33.338518,11.287329c10.749168,1.468245 20.087769,-1.333417 28.825417,-2.847312c2.217798,-0.385374 5.083051,-0.245238 6.765477,-1.931118c-6.974141,-1.402423 -12.76188,-3.794292 -20.044843,-6.34753c-9.566342,-3.350528 -16.997159,-5.617124 -20.612409,-12.343658c4.281782,-0.997939 9.240827,-0.257978 13.697886,0.437395c4.867233,0.755886 9.697502,1.466121 14.367995,2.149816c19.72052,2.890839 34.572615,7.743583 49.584487,14.039093c7.292503,3.054331 14.01267,7.310435 20.193889,10.882845c12.659336,7.325298 23.465738,16.421407 33.658072,26.330731c4.613259,4.48648 8.734072,10.104665 13.737234,15.459564c2.186797,2.34091 4.385517,4.952538 6.722552,7.843377c2.233299,2.746456 5.641078,6.112908 6.113254,8.515394c0.531795,2.653032 -1.050473,5.561918 -1.846973,8.46125c-1.377181,5.036408 -2.393076,10.439081 -1.931631,15.610316c0.603337,6.688316 2.282186,13.202523 5.802047,18.269718c1.527419,-1.209205 2.151026,-3.337788 2.937987,-5.286954c3.858492,-4.390932 8.991622,-8.776556 9.119205,-16.083807c10.539312,4.84956 31.011022,4.442953 43.301917,4.316618c3.695138,-0.038219 7.459434,0.309998 10.520234,-0.969275c-6.455463,-3.331418 -11.19392,-7.54718 -16.805188,-11.851058c-8.489637,-6.502529 -15.511473,-11.980578 -28.026533,-15.459564c-4.056425,-1.127459 -8.700685,-1.7379 -10.923253,-3.827203c-1.708659,-1.598826 -2.22853,-5.140448 -3.095379,-8.551489c-2.331073,-9.222444 -5.362064,-19.007556 -8.066347,-26.769187c-8.115234,-23.330544 -20.501519,-44.065384 -36.981192,-60.1683c-8.351323,-8.166115 -18.324261,-14.816212 -29.077006,-22.210516c-1.837434,-2.564916 -5.279791,-6.024792 -5.99044,-9.935864c-0.727342,-4.026791 0.584259,-7.560982 3.379162,-10.266034c6.114446,-3.972647 15.721329,-4.412165 19.875528,-10.358396c-5.431221,-3.481109 -12.170467,-4.501343 -18.783322,-5.07038c-14.285722,-1.230438 -27.670016,-0.274964 -38.751854,3.37813z" fill-opacity="null" stroke-opacity="null" stroke-width="1.5" stroke="#000" fill="#fff"/>
 </g>
</svg>